<?xml version="1.0" encoding="UTF-8"?>
<!DOCTYPE svg PUBLIC "-//W3C//DTD SVG 1.1//EN" "http://www.w3.org/Graphics/SVG/1.1/DTD/svg11.dtd">
<!-- Creator: CorelDRAW X7 -->
<?xml-stylesheet href="Indonesia Monitoring Logo.css" type="text/css"?>
<svg xmlns="http://www.w3.org/2000/svg" xml:space="preserve" width="297mm" height="210mm" version="1.1" style="shape-rendering:geometricPrecision; text-rendering:geometricPrecision; image-rendering:optimizeQuality; fill-rule:evenodd; clip-rule:evenodd"
viewBox="0 0 29700 21000"
 xmlns:xlink="http://www.w3.org/1999/xlink">
 <g id="Layer_x0020_1">
  <metadata id="CorelCorpID_0Corel-Layer"/>
  <path class="fil0" d="M13558 10055l574 7c27,-35 30,-118 2,-168l-468 -13 -404 -585c-4,3 -10,3 -12,10l-780 1001c-81,-85 -214,-325 -293,-431l-571 -2c-52,-13 -54,197 -3,200 87,5 244,-8 488,-2l379 573c76,-46 701,-906 792,-1025l296 435z"/>
  <path class="fil0" d="M14766 11492c112,112 229,228 344,344 41,40 60,57 89,111 89,162 -38,367 -195,379 -199,16 -310,-161 -436,-285l-519 -522 372 -367c44,29 129,124 174,169 18,18 28,28 46,47l125 124z"/>
  <path class="fil0" d="M12895 11337c-396,0 -724,-128 -992,-396 -227,-227 -404,-559 -404,-908 0,-371 54,-564 246,-855 65,-98 144,-179 233,-257 198,-176 541,-322 825,-322 325,0 544,50 795,213l170 127c7,6 7,7 13,14 149,160 203,197 314,417 109,220 132,401 132,654 0,266 -120,580 -285,787 -108,135 -245,259 -397,344 -200,111 -411,182 -650,182zm-1701 -1452c0,309 28,525 157,795l65 129c24,42 127,195 168,239 37,39 59,68 98,106 444,445 1154,619 1744,390 106,-41 276,-116 369,-186 20,-15 28,-24 53,-30l146 140c34,-23 351,-328 362,-372 -27,-37 -109,-95 -138,-138 8,-30 81,-129 114,-191 41,-79 69,-138 97,-217 190,-524 117,-1119 -210,-1564 -29,-40 -57,-75 -91,-111 -21,-23 -25,-33 -47,-56 -17,-18 -29,-31 -50,-51 -79,-75 -158,-141 -252,-201 -1,-1 -3,-2 -5,-3l-11 -8c-13,-8 -5,-3 -17,-11l-199 -106c-3,-1 -11,-4 -13,-5 -104,-44 -170,-72 -291,-99 -558,-122 -1151,35 -1538,424 -34,34 -72,66 -100,103 -20,25 -28,32 -47,56 -17,22 -27,36 -43,58 -181,240 -321,609 -321,909z"/>
 </g>
</svg>
